<svg width="32" height="30" viewBox="0 0 32 30" fill="none" xmlns="http://www.w3.org/2000/svg">
<path d="M7.13642 3.22978L4.33672 0.433928C4.04765 0.144856 3.66756 0 3.28811 0C2.90802 0 2.52793 0.144215 2.2395 0.433287L0 2.66638L4.89691 7.55432L7.13642 5.32187C7.7152 4.74372 7.7152 3.806 7.13642 3.22978Z" transform="translate(23.7256)" fill="black"/>
<path d="M0 13.4639L4.89691 18.3525L18.3859 4.88858L13.4889 0L0 13.4639Z" transform="translate(9.18848 3.71289)" fill="black"/>
<path d="M1.0454 0L0 5.93078L5.94231 4.88794L1.0454 0Z" transform="translate(7.08594 18.2227)" fill="black"/>
<path d="M21.6688 21.6676H3.20543V3.20479H16.2354L19.4466 0H2.07286C0.932593 0 0 0.932593 0 2.07286V22.8001C0 23.9397 0.932593 24.8723 2.07286 24.8723H22.8008C23.9398 24.8723 24.8723 23.9397 24.8723 22.8001V7.98056L21.6676 11.1802L21.6688 21.6676Z" transform="translate(0 5.12744)" fill="black"/>
</svg>
