<svg width="37" height="30" viewBox="0 0 37 30" fill="none" xmlns="http://www.w3.org/2000/svg">
<path d="M18.5 11.25C15.4346 11.25 12.95 13.7692 12.95 16.875C12.95 19.9819 15.4346 22.5 18.5 22.5C21.5647 22.5 24.05 19.9819 24.05 16.875C24.05 13.7692 21.5647 11.25 18.5 11.25ZM33.3 5.625H28.86C28.2495 5.625 27.5916 5.145 27.3989 4.55775L26.2511 1.06688C26.0576 0.48 25.4005 0 24.79 0H12.21C11.5995 0 10.9416 0.48 10.7489 1.06725L9.60113 4.55813C9.40762 5.145 8.7505 5.625 8.14 5.625H3.7C1.665 5.625 0 7.3125 0 9.375V26.25C0 28.3125 1.665 30 3.7 30H33.3C35.335 30 37 28.3125 37 26.25V9.375C37 7.3125 35.335 5.625 33.3 5.625ZM18.5 26.25C13.3914 26.25 9.25 22.0526 9.25 16.875C9.25 11.6978 13.3914 7.5 18.5 7.5C23.6079 7.5 27.75 11.6978 27.75 16.875C27.75 22.0526 23.6079 26.25 18.5 26.25ZM32.005 11.9974C31.2902 11.9974 30.71 11.4101 30.71 10.6849C30.71 9.96037 31.2902 9.37238 32.005 9.37238C32.7206 9.37238 33.3 9.96037 33.3 10.6849C33.3 11.4101 32.7202 11.9974 32.005 11.9974Z" fill="black"/>
</svg>
