<svg width="23" height="23" viewBox="0 0 23 23" xmlns="http://www.w3.org/2000/svg" xmlns:xlink="http://www.w3.org/1999/xlink"><title>logo_z</title><desc>Created using Figma</desc><use xlink:href="#a" transform="translate(0 6)" fill="#FFF"/><use xlink:href="#b" transform="rotate(180 11.5 8.5)" fill="#FFF"/><defs><path id="a" d="M.028 14.875L10.522.598A1.481 1.481 0 0 1 11.718 0l2.435.003L3.128 14.617l.039.073 17.823.003c.55 0 1.055.301 1.306.78l.688 1.304a.144.144 0 0 1-.131.21L1.146 17a.148.148 0 0 1-.13-.078l-1-1.898a.14.14 0 0 1 .012-.15z"/><path id="b" d="M.028 14.875L10.522.598A1.481 1.481 0 0 1 11.718 0l2.435.003L3.128 14.617l.039.073 17.823.003c.55 0 1.055.301 1.306.78l.688 1.304a.144.144 0 0 1-.131.21L1.146 17a.148.148 0 0 1-.13-.078l-1-1.898a.14.14 0 0 1 .012-.15z"/></defs></svg>