<?xml version="1.0" encoding="utf-8"?>
<!-- Generator: Adobe Illustrator 19.0.1, SVG Export Plug-In . SVG Version: 6.00 Build 0)  -->
<svg version="1.1" id="Слой_1" xmlns="http://www.w3.org/2000/svg" xmlns:xlink="http://www.w3.org/1999/xlink" x="0px" y="0px"
	 viewBox="-92.5 263 267 267" style="enable-background:new -92.5 263 267 267;" xml:space="preserve">
<style type="text/css">
	.st0{fill:#CCCCCC;}
	.st1{fill:#939393;}
</style>
<circle class="st0" cx="41.1" cy="396.5" r="133.5"/>
<path class="st1" d="M149.9,473.8c-1.1-7.8-2.1-14.3-2.9-17.5c-0.1-0.6-0.3-1.1-0.6-1.7c-0.1-0.2-0.2-0.3-0.2-0.5
	c-0.2-0.4-0.3-0.8-0.6-1.1c-0.1-0.2-0.2-0.4-0.3-0.6c-0.2-0.4-0.4-0.7-0.7-1.1c-0.1-0.2-0.2-0.3-0.3-0.5c-0.3-0.4-0.7-0.9-1-1.3
	c-0.1-0.1-0.1-0.1-0.2-0.2c-0.4-0.5-0.9-0.9-1.4-1.4c-0.1-0.1-0.3-0.2-0.4-0.4c-0.4-0.3-0.7-0.6-1.1-1c-0.2-0.1-0.4-0.3-0.6-0.4
	c-0.4-0.3-0.8-0.6-1.2-0.9c-0.2-0.1-0.4-0.3-0.6-0.4c-0.5-0.3-1-0.6-1.5-1c-0.1-0.1-0.2-0.1-0.3-0.2c-0.6-0.4-1.3-0.8-2-1.1
	c-0.1-0.1-0.3-0.1-0.4-0.2c-0.5-0.3-1.1-0.6-1.6-0.8c-0.2-0.1-0.4-0.2-0.7-0.3c-0.5-0.2-1-0.5-1.5-0.7c-0.2-0.1-0.5-0.2-0.7-0.3
	c-0.6-0.2-1.2-0.5-1.8-0.7c-0.2-0.1-0.3-0.1-0.5-0.2c-0.8-0.3-1.5-0.6-2.3-0.9c-0.1,0-0.2-0.1-0.3-0.1c-0.7-0.2-1.3-0.5-2-0.7
	c-0.2-0.1-0.5-0.2-0.7-0.2c-0.6-0.2-1.1-0.4-1.7-0.5c-0.3-0.1-0.5-0.2-0.8-0.2c-0.6-0.2-1.2-0.3-1.8-0.5c-0.2-0.1-0.4-0.1-0.6-0.2
	c-0.8-0.2-1.6-0.4-2.4-0.6c-0.1,0-0.1,0-0.2,0c-0.7-0.2-1.4-0.4-2.2-0.5c-0.3-0.1-0.5-0.1-0.8-0.2c-0.5-0.1-1.1-0.2-1.6-0.4
	c-0.3-0.1-0.5-0.1-0.8-0.2c-0.5-0.1-1-0.2-1.5-0.3c-0.2-0.1-0.5-0.1-0.7-0.2c-0.6-0.1-1.3-0.3-1.9-0.4c-0.1,0-0.3-0.1-0.4-0.1
	c-0.6-0.1-1.3-0.2-1.9-0.3c-0.3-0.1-0.6-0.1-0.9-0.2c-0.4-0.1-0.8-0.1-1.1-0.2c-0.3-0.1-0.6-0.1-0.9-0.2c-0.3-0.1-0.6-0.1-0.9-0.2
	c-0.3,0-0.6-0.1-0.9-0.1c-0.3,0-0.5-0.1-0.8-0.1c-4.7-0.7-8-1.1-8.8-1.2l0,0c-0.1,0-0.2,0-0.3,0c0,0-7.8-6.8-13.3-9.8v-12.6v-12.3
	c3.6-5.9,6.3-13,7.7-21.1c2.4,1.5,4.1-1.7,5.9-8c2.4-8.6,3.4-14,2-16.2c-0.3-0.5-0.7-0.9-1.2-1.1c0.7-5.4,0.9-11.8,0.2-19.1
	c-3-34.3-27.9-40.3-45.2-40.3v0l0,0v0c-17.3,0-42.1,6-45.2,40.3c-0.6,7.3-0.4,13.6,0.2,19.1c-0.5,0.2-0.9,0.6-1.2,1.1
	c-1.4,2.3-0.3,7.6,2,16.2c1.7,6.3,3.5,9.6,5.9,8c1.5,8,4.2,15.1,7.7,21.1v12.3v12.6c-5.4,3-13.3,9.8-13.3,9.8c-0.1,0-0.2,0-0.3,0
	c0,0,0,0,0,0c-0.8,0.1-4.1,0.5-8.8,1.2c-0.3,0-0.5,0.1-0.8,0.1c-0.3,0-0.6,0.1-0.9,0.1c-0.3,0.1-0.6,0.1-0.9,0.2
	c-0.3,0.1-0.6,0.1-0.9,0.2c-0.4,0.1-0.7,0.1-1.1,0.2c-0.3,0.1-0.6,0.1-0.9,0.2c-0.6,0.1-1.2,0.2-1.9,0.3c-0.1,0-0.3,0.1-0.4,0.1
	c-0.6,0.1-1.3,0.2-1.9,0.4c-0.2,0.1-0.5,0.1-0.7,0.2c-0.5,0.1-1,0.2-1.5,0.3c-0.3,0.1-0.5,0.1-0.8,0.2c-0.5,0.1-1,0.2-1.6,0.4
	c-0.3,0.1-0.5,0.1-0.7,0.2c-0.7,0.2-1.4,0.3-2.2,0.5c-0.1,0-0.1,0-0.2,0c-0.8,0.2-1.6,0.4-2.4,0.6c-0.2,0.1-0.4,0.1-0.6,0.2
	c-0.6,0.2-1.2,0.3-1.8,0.5c-0.3,0.1-0.5,0.2-0.8,0.2c-0.6,0.2-1.1,0.3-1.7,0.5c-0.2,0.1-0.5,0.2-0.7,0.2c-0.7,0.2-1.3,0.4-2,0.7
	c-0.1,0-0.2,0.1-0.3,0.1c-0.8,0.3-1.6,0.6-2.3,0.9c-0.2,0.1-0.3,0.1-0.5,0.2c-0.6,0.2-1.2,0.5-1.8,0.7c-0.2,0.1-0.5,0.2-0.7,0.3
	c-0.5,0.2-1,0.5-1.5,0.7c-0.2,0.1-0.4,0.2-0.7,0.3c-0.6,0.3-1.1,0.5-1.6,0.8c-0.1,0.1-0.3,0.1-0.4,0.2c-0.7,0.4-1.3,0.7-2,1.1
	c-0.1,0.1-0.2,0.1-0.3,0.2c-0.5,0.3-1,0.6-1.5,1c-0.2,0.1-0.4,0.3-0.6,0.4c-0.4,0.3-0.8,0.6-1.2,0.9c-0.2,0.1-0.4,0.3-0.6,0.4
	c-0.4,0.3-0.8,0.6-1.1,1c-0.1,0.1-0.3,0.2-0.4,0.4c-0.5,0.5-1,0.9-1.4,1.4c-0.1,0.1-0.1,0.1-0.2,0.2c-0.4,0.4-0.7,0.8-1,1.3
	c-0.1,0.2-0.2,0.3-0.3,0.5c-0.2,0.3-0.5,0.7-0.7,1.1c-0.1,0.2-0.2,0.4-0.3,0.6c-0.2,0.4-0.4,0.7-0.6,1.1c-0.1,0.2-0.2,0.3-0.2,0.5
	c-0.2,0.6-0.4,1.1-0.6,1.7c-1,4-2.4,13-3.7,23.4C-39.1,510.4-1.3,530,41.1,530C86.2,530,126,507.8,149.9,473.8z"/>
</svg>
